<?xml version="1.0" standalone="no"?>
<!DOCTYPE svg PUBLIC "-//W3C//DTD SVG 20010904//EN"
 "http://www.w3.org/TR/2001/REC-SVG-20010904/DTD/svg10.dtd">
<svg version="1.0" xmlns="http://www.w3.org/2000/svg"
 width="25.000000pt" height="25.000000pt" viewBox="0 0 263.000000 166.000000"
 preserveAspectRatio="xMidYMid meet">

<g transform="translate(0.000000,166.000000) scale(0.100000,-0.100000)"
fill="#000000" stroke="none">
<path d="M0 830 l0 -830 1315 0 1315 0 0 830 0 830 -1315 0 -1315 0 0 -830z
m666 323 l109 -288 3 288 2 287 110 0 110 0 0 -635 0 -635 -89 0 -90 0 -19 53
c-10 28 -61 171 -113 317 l-94 265 -3 -318 -2 -317 -110 0 -110 0 0 635 0 635
93 0 93 0 110 -287z m1024 192 l0 -95 -130 0 -130 0 0 -160 0 -160 100 0 100
0 0 -100 0 -100 -100 0 -100 0 0 -185 0 -185 130 0 130 0 0 -95 0 -95 -260 0
-260 0 0 635 0 635 260 0 260 0 0 -95z m650 -10 l0 -105 -90 0 -90 0 0 -530 0
-530 -130 0 -130 0 0 530 0 530 -85 0 -85 0 0 105 0 105 305 0 305 0 0 -105z"/>
</g>
</svg>
